<svg height="30" viewBox="0 0 30 30" width="30" xmlns="http://www.w3.org/2000/svg"><g fill="#359cde" fill-rule="evenodd"><path d="m 12.99 3 c 5.53 0 10.01 4.48 10.01 10 c 0 0.3377 -0.0168 0.6715 -0.0495 1.0006 l -2.0181 0.0002 c 0.0435 -0.328 0.0676 -0.662 0.0676 -1.0009 c 0 -0.69 -0.1 -1.36 -0.26 -2 h -3.38 c 0.08 0.66 0.14 1.32 0.14 2 c 0 0.3376 -0.0148 0.6703 -0.0395 1.0005 l -1.4605 -0.0005 c -0.1922 0 -0.378 0.0271 -0.5539 0.0777 c 0.0338 -0.3547 0.0539 -0.7133 0.0539 -1.0777 c 0 -0.68 -0.07 -1.35 -0.16 -2 h -4.68 c -0.09 0.65 -0.16 1.32 -0.16 2 s 0.07 1.34 0.16 2 l 3.6076 -0.0001 c -0.1702 0.2942 -0.2676 0.6358 -0.2676 1.0001 v 1 h -2.91 c 0.3822 1.2711 0.9383 2.4632 1.6401 3.5552 l 0.2699 0.4048 c 0.3706 -0.5358 0.7052 -1.0974 1.0005 -1.6823 l 0.0002 3.672 c -0.3324 0.0333 -0.6696 0.0503 -1.0107 0.0503 c -5.52 0 -9.99 -4.48 -9.99 -10 s 4.47 -10 9.99 -10 z m -3.96 14 h -2.95 c 0.96 1.66 2.49 2.93 4.33 3.56 c -0.6 -1.11 -1.06 -2.31 -1.38 -3.56 z m -0.39 -6 h -3.38 c -0.16 0.64 -0.26 1.31 -0.26 2 s 0.1 1.36 0.26 2 h 3.38 c -0.08 -0.66 -0.14 -1.32 -0.14 -2 s 0.06 -1.34 0.14 -2 z m 6.95 -5.56 c 0.6 1.11 1.06 2.31 1.38 3.56 h 2.95 c -0.96 -1.65 -2.49 -2.93 -4.33 -3.56 z m -2.59 -0.4 c -0.83 1.2 -1.48 2.53 -1.91 3.96 h 3.82 c -0.43 -1.43 -1.08 -2.76 -1.91 -3.96 z m -2.59 0.4 c -1.84 0.63 -3.37 1.9 -4.33 3.56 h 2.95 c 0.32 -1.25 0.78 -2.45 1.38 -3.56 z"/><path d="m 24 15 c 1.1046 0 2 0.8954 2 2 v 7 c 0 1.1046 -0.8954 2 -2 2 h -7 c -1.1046 0 -2 -0.8954 -2 -2 v -7 c 0 -1.1046 0.8954 -2 2 -2 z m -5.6727 8.9322 c 0.4211 0 0.646 -0.2153 0.8039 -0.7704 l 0.2536 -0.78 h 2.1964 l 0.2488 0.78 c 0.1579 0.5407 0.402 0.7704 0.823 0.7704 c 0.4546 0 0.7513 -0.268 0.7513 -0.6843 c 0 -0.1675 -0.0431 -0.3589 -0.1292 -0.6269 l -1.4403 -4.2349 c -0.2632 -0.78 -0.6269 -1.0862 -1.3159 -1.0862 s -1.0623 0.311 -1.3207 1.0862 l -1.4451 4.2349 c -0.1101 0.3206 -0.1531 0.5024 -0.1531 0.6604 c 0 0.3828 0.2967 0.6508 0.7273 0.6508 z m 1.3829 -2.694 l 0.7417 -2.4739 h 0.0766 l 0.7321 2.4739 z"/></g></svg>